<svg xmlns="http://www.w3.org/2000/svg" xmlns:xlink="http://www.w3.org/1999/xlink" viewBox="0,0,256,256" width="192px" height="192px" fill-rule="nonzero"><g fill="#ffffff" fill-rule="nonzero" stroke="none" stroke-width="1" stroke-linecap="butt" stroke-linejoin="miter" stroke-miterlimit="10" stroke-dasharray="" stroke-dashoffset="0" font-family="none" font-weight="none" font-size="none" text-anchor="none" style="mix-blend-mode: normal"><g transform="scale(10.66667,10.66667)"><path d="M17,21h3c1.65,0 3,-1.35 3,-3v-8.08l-6,4.68zM19.5,3c-0.79,0 -1.54,0.26 -2.16,0.74l-0.34,0.27v8.06l6,-4.69v-0.88c0,-1.93 -1.57,-3.5 -3.5,-3.5zM9,5.57v8.06l3,2.34l3,-2.34v-8.06l-3,2.34zM1,18c0,1.65 1.35,3 3,3h3v-6.4l-6,-4.68zM4.5,3c-1.93,0 -3.5,1.57 -3.5,3.5v0.88l6,4.69v-8.06l-0.34,-0.27c-0.62,-0.48 -1.37,-0.74 -2.16,-0.74z"></path></g></g></svg>